<?xml version="1.0" standalone="no"?>
<!DOCTYPE svg PUBLIC "-//W3C//DTD SVG 20010904//EN"
 "http://www.w3.org/TR/2001/REC-SVG-20010904/DTD/svg10.dtd">
<svg version="1.0" xmlns="http://www.w3.org/2000/svg"
 width="512.000000pt" height="512.000000pt" viewBox="0 0 512.000000 512.000000"
 preserveAspectRatio="xMidYMid meet">
<metadata>
Created by potrace 1.14, written by Peter Selinger 2001-2017
</metadata>
<g transform="translate(0.000000,512.000000) scale(0.100000,-0.100000)"
fill="#000000" stroke="none">
<path d="M2348 3995 c-2 -2 -49 -6 -104 -9 -56 -4 -110 -8 -120 -10 -11 -2
-48 -7 -84 -10 -36 -4 -77 -9 -90 -11 -14 -3 -41 -7 -60 -10 -19 -3 -46 -7
-60 -10 -14 -2 -40 -7 -57 -10 -278 -45 -658 -191 -877 -337 -327 -217 -554
-520 -646 -864 -27 -98 -34 -162 -34 -284 0 -171 24 -304 90 -500 31 -90 113
-265 133 -280 3 -3 19 -23 36 -45 121 -162 361 -300 635 -365 25 -6 54 -13 65
-15 53 -13 176 -34 230 -40 33 -4 62 -9 65 -10 3 -2 37 -7 75 -10 38 -4 78 -9
90 -11 11 -2 56 -7 99 -10 44 -3 93 -7 110 -10 189 -25 1005 -25 1376 1 36 2
108 7 160 10 145 10 287 23 330 30 14 2 43 7 65 10 99 13 118 16 243 44 395
87 725 286 822 496 49 107 64 195 64 370 -1 121 -10 199 -45 350 -12 55 -68
234 -77 250 -4 6 -7 15 -8 21 -1 6 -25 60 -54 119 -115 241 -302 468 -532 645
-312 242 -748 420 -1158 474 -25 4 -61 9 -80 11 -95 13 -173 17 -377 20 -122
1 -224 1 -225 0z"/>
</g>
</svg>
